<svg width="157" height="45" viewBox="0 0 157 45" fill="none" xmlns="http://www.w3.org/2000/svg">
<ellipse cx="9.73913" cy="9.37278" rx="9.73913" ry="9.37278" fill="#6B7F33"/>
<rect y="25.2217" width="19.4783" height="19.0864" rx="2" fill="#6B7F33"/>
<path fill-rule="evenodd" clip-rule="evenodd" d="M32 0C30.079 0 28.5217 1.55727 28.5217 3.47827V15.6081C28.5217 15.6199 28.5218 15.6316 28.5219 15.6433C28.5218 15.6549 28.5217 15.6665 28.5217 15.6781C28.5217 17.5604 30.0477 19.0864 31.93 19.0864H31.9948C31.9965 19.0864 31.9983 19.0864 32 19.0864C32.0017 19.0864 32.0035 19.0864 32.0052 19.0864H44.5917C46.474 19.0864 48 17.5604 48 15.6781C48 13.7958 46.474 12.2698 44.5917 12.2698L35.4783 12.2698V3.47826C35.4783 1.55727 33.921 0 32 0Z" fill="#6B7F33"/>
<rect x="48" y="25.2217" width="4.7716" height="19.4783" rx="2.3858" transform="rotate(90 48 25.2217)" fill="#6B7F33"/>
<rect x="48" y="32.3789" width="4.7716" height="19.4783" rx="2.3858" transform="rotate(90 48 32.3789)" fill="#6B7F33"/>
<rect x="48" y="39.5361" width="4.7716" height="19.4783" rx="2.3858" transform="rotate(90 48 39.5361)" fill="#6B7F33"/>
<path d="M88.3718 10.3848V33.541H85.0964V10.3848H88.3718ZM75.8288 12.0098C79.3073 12.0098 81.8972 15.209 81.8972 20.2363C81.8972 25.3145 79.3073 28.4883 75.8288 28.4883C72.2741 28.4883 69.6843 25.3145 69.7097 20.2363C69.6843 15.209 72.2741 12.0098 75.8288 12.0098ZM75.8288 14.9297C74.0261 14.9297 72.8327 16.8086 72.8327 20.2363C72.8327 23.6895 74.0261 25.543 75.8288 25.543C77.5808 25.543 78.7741 23.6895 78.7741 20.2363C78.7741 16.8086 77.5808 14.9297 75.8288 14.9297ZM101.512 10.8164C106.641 10.8164 109.891 12.5176 109.916 15.3359C109.891 18.1289 106.641 19.8301 101.512 19.8047C96.4084 19.8301 93.0823 18.1289 93.0823 15.3359C93.0823 12.5176 96.4084 10.8164 101.512 10.8164ZM101.512 13.3301C98.2873 13.3301 96.4338 14.0156 96.4592 15.3359C96.4338 16.6309 98.2873 17.291 101.512 17.291C104.711 17.291 106.565 16.6309 106.565 15.3359C106.565 14.0156 104.711 13.3301 101.512 13.3301ZM109.535 25.3652V33.2363H93.4123V25.3652H109.535ZM96.6116 27.9297V30.6465H106.362V27.9297H96.6116ZM112.049 21.1504V23.7402H90.9748V21.1504H112.049ZM131.765 20.3379V22.9531H125.113V28.2598H134.076V30.8496H112.926V28.2598H121.838V22.9531H115.287V12.1621H118.613V20.3379H131.765ZM154.249 10.3848V33.541H151.025V10.3848H154.249ZM147.089 12.3145V21.2266H139.472V25.4668C142.989 25.4541 145.985 25.251 149.374 24.7051L149.654 27.3203C145.845 27.9805 142.417 28.1328 138.202 28.1328H136.12V18.6621H143.788V14.9297H136.095V12.3145H147.089Z" fill="#1D1E20"/>
</svg>
